<?xml version="1.0" encoding="iso-8859-1"?>
<!-- Generator: Adobe Illustrator 16.0.0, SVG Export Plug-In . SVG Version: 6.00 Build 0)  -->
<!DOCTYPE svg PUBLIC "-//W3C//DTD SVG 1.1//EN" "http://www.w3.org/Graphics/SVG/1.1/DTD/svg11.dtd">
<svg version="1.1" id="Layer_1" xmlns="http://www.w3.org/2000/svg" xmlns:xlink="http://www.w3.org/1999/xlink" x="0px" y="0px"
	 width="247px" height="246px" viewBox="0 0 247 246" style="enable-background:new 0 0 247 246;" xml:space="preserve">
<g>
	<g>
		<path style="fill:#FF1864;" d="M68.169,33c-0.252,1.446-0.515,2.893-0.67,4.349c-0.191,1.45-0.293,2.915-0.399,4.375
			c-0.215,2.921-0.281,5.853-0.366,8.787l-0.139,4.407c-0.054,1.471-0.136,2.942-0.242,4.415c-0.126,1.472-0.243,2.947-0.461,4.416
			c-0.174,1.473-0.464,2.936-0.787,4.39l-0.548,2.171l-0.685,2.138c-0.228,0.713-0.545,1.396-0.813,2.097l-0.211,0.522l-0.105,0.261
			l-0.167,0.305l-0.538,0.96c-0.369,0.638-0.696,1.285-1.099,1.916l-1.318,1.867c-0.224,0.308-0.436,0.63-0.669,0.925l-0.723,0.858
			l-1.449,1.715c-1.041,1.062-2.039,2.181-3.125,3.19c-1.076,1.022-2.151,2.047-3.264,3.014c-2.204,1.974-4.447,3.863-6.647,5.789
			l0.064-0.06l-0.956,1.068c-0.291,0.376-0.568,0.761-0.854,1.139c-0.26,0.393-0.49,0.8-0.74,1.198
			c-0.123,0.199-0.2,0.417-0.303,0.625l-0.293,0.628c-0.098,0.209-0.144,0.433-0.219,0.647l-0.209,0.649
			c-0.063,0.218-0.077,0.441-0.12,0.661l-0.113,0.661c-0.015,0.441-0.004,0.881-0.017,1.322l0.214,1.296l-0.052-0.159l0.337,0.693
			l0.416,0.638l0.496,0.581l0.574,0.524l0.647,0.471l0.707,0.426c0.493,0.267,1.011,0.516,1.551,0.75l3.419,1.393
			c0.59,0.253,1.181,0.532,1.771,0.839l0.876,0.504l0.854,0.579l0.071,0.048l0.071,0.075l0.643,0.678
			c0.216,0.224,0.407,0.482,0.611,0.723c0.208,0.236,0.382,0.513,0.567,0.776c0.19,0.258,0.349,0.549,0.51,0.836
			c0.171,0.279,0.302,0.591,0.436,0.899c0.146,0.3,0.235,0.636,0.34,0.961c0.115,0.322,0.148,0.677,0.221,1.015
			c0.04,0.169,0.034,0.348,0.051,0.521L55.345,120l-0.026-0.264l0.139,0.959c0.036,0.32,0.031,0.642,0.045,0.962
			c0.016,0.322-0.028,0.634-0.042,0.952c-0.011,0.32-0.079,0.62-0.119,0.93c-0.1,0.611-0.242,1.206-0.407,1.774
			c-0.16,0.573-0.347,1.125-0.53,1.658c-0.368,1.069-0.746,2.083-0.975,3.046c-0.069,0.244-0.099,0.475-0.141,0.708
			c-0.054,0.238-0.044,0.454-0.07,0.681c-0.021,0.226,0.014,0.431,0.012,0.646c0.023,0.209,0.073,0.408,0.101,0.614l-0.03-0.101
			l0.229,0.49c0.083,0.165,0.125,0.329,0.238,0.498l0.325,0.505c0.115,0.169,0.199,0.339,0.337,0.508
			c0.501,0.675,1.054,1.359,1.632,2.047c0.588,0.699,1.175,1.423,1.755,2.204c0.148,0.184,0.277,0.417,0.416,0.624l0.407,0.641
			c0.137,0.21,0.236,0.484,0.353,0.726l0.33,0.75l0.03,0.068l0.023,0.144c0.225,1.426,0.43,2.84,0.622,4.233l0.321,2.061
			l0.402,2.001c0.186,0.64,0.35,1.289,0.548,1.922l0.358,0.918c0.127,0.302,0.218,0.623,0.374,0.91l0.46,0.864
			c0.161,0.284,0.286,0.589,0.474,0.857l1.13,1.611l0.316,0.451l-0.018,0.4l-0.083,1.9c-0.069,0.62-0.125,1.247-0.207,1.862
			c-0.178,1.228-0.396,2.434-0.638,3.622l-0.742,3.522c-0.243,1.161-0.46,2.315-0.652,3.463c-0.181,1.147-0.311,2.29-0.374,3.426
			c-0.002,0.563-0.038,1.132-0.016,1.691c0.048,0.555,0.051,1.12,0.131,1.668c0.104,0.541,0.155,1.099,0.297,1.63
			c0.164,0.523,0.274,1.066,0.476,1.577c0.223,0.502,0.407,1.021,0.654,1.513l0.823,1.438l-0.753-0.521l5.066,1.104
			c1.69,0.361,3.375,0.752,5.07,1.09l5.099,0.945c1.703,0.299,3.395,0.667,5.107,0.91l5.133,0.754
			c1.713,0.237,3.419,0.54,5.142,0.695l5.161,0.559l2.581,0.279l0.323,0.035l0.081,0.009l0.161,0.023l0.16,0.03l0.64,0.121
			l1.279,0.242c1.71,0.374,3.489,0.874,5.12,1.531c0.844,0.282,1.637,0.687,2.439,1.068c0.816,0.354,1.577,0.813,2.333,1.278
			c0.378,0.232,0.766,0.447,1.134,0.694l1.075,0.785l1.069,0.787l0.998,0.88l0.995,0.878l0.909,0.968l0.906,0.967l0.813,1.048
			l0.808,1.049c0.247,0.364,0.471,0.746,0.707,1.118l0.698,1.122c0.216,0.384,0.394,0.788,0.593,1.181l0.579,1.186
			c0.188,0.397,0.313,0.822,0.473,1.23c0.307,0.824,0.623,1.643,0.802,2.505c0.204,0.853,0.468,1.691,0.544,2.567
			c0.09,0.871,0.297,1.727,0.278,2.604c0.007,0.873,0.091,1.743,0.035,2.612l-0.193,2.601l0.057-2.602
			c0.011-0.866-0.119-1.729-0.171-2.589c-0.025-0.865-0.277-1.704-0.409-2.554c-0.121-0.854-0.405-1.672-0.64-2.498
			c-0.207-0.836-0.549-1.626-0.88-2.418c-0.171-0.393-0.308-0.801-0.506-1.181l-0.61-1.132c-0.208-0.374-0.395-0.76-0.619-1.123
			l-0.721-1.062c-0.243-0.352-0.473-0.712-0.725-1.056l-0.821-0.983l-0.822-0.979l-0.912-0.897l-0.909-0.897l-0.991-0.807
			l-0.988-0.807l-1.057-0.715l-1.057-0.711c-0.361-0.224-0.743-0.414-1.112-0.622c-0.741-0.416-1.483-0.824-2.271-1.147
			c-0.775-0.346-1.539-0.715-2.352-0.964c-1.607-0.599-3.193-1.006-4.878-1.337l-1.285-0.212l-0.643-0.105l-0.161-0.026l-0.04-0.007
			c0.029,0.004-0.094-0.013,0.061,0.008l-0.02-0.002l-0.082-0.007l-0.325-0.027l-2.604-0.22l-5.209-0.438
			c-1.74-0.115-3.464-0.378-5.195-0.576l-5.191-0.637c-1.732-0.204-3.445-0.533-5.168-0.794l-5.166-0.831
			c-1.715-0.315-3.418-0.691-5.128-1.033l-5.126-1.053l-0.507-0.104l-0.246-0.417l-0.984-1.668c-0.298-0.572-0.53-1.182-0.794-1.772
			c-0.243-0.601-0.388-1.235-0.583-1.853c-0.173-0.624-0.247-1.265-0.371-1.897c-0.099-0.636-0.116-1.273-0.174-1.911
			c-0.033-0.636-0.003-1.266-0.006-1.899c0.054-1.257,0.181-2.497,0.358-3.719c0.361-2.44,0.917-4.794,1.377-7.114
			c0.23-1.16,0.433-2.312,0.595-3.456l0.183-1.708L61.638,158l0.298,0.851l-1.318-1.862c-0.217-0.313-0.373-0.665-0.561-0.996
			l-0.539-1.012c-0.181-0.336-0.292-0.701-0.44-1.051l-0.416-1.062c-0.229-0.717-0.418-1.44-0.626-2.162l-0.445-2.163l-0.342-2.138
			l-0.625-4.176l0.053,0.211l-0.226-0.489c-0.083-0.165-0.122-0.328-0.234-0.497l-0.322-0.507c-0.114-0.169-0.197-0.339-0.334-0.509
			c-0.498-0.676-1.047-1.363-1.624-2.053c-0.585-0.701-1.17-1.428-1.746-2.211c-0.147-0.184-0.275-0.417-0.413-0.624l-0.404-0.642
			c-0.136-0.21-0.234-0.484-0.35-0.726l-0.327-0.75l-0.02-0.045l-0.01-0.056c-0.06-0.343-0.134-0.688-0.167-1.031
			c-0.008-0.338-0.045-0.689-0.017-1.019c0.031-0.326,0.037-0.67,0.103-0.977c0.056-0.313,0.104-0.634,0.187-0.925
			c0.294-1.199,0.706-2.271,1.063-3.301c0.181-0.517,0.352-1.019,0.492-1.516c0.147-0.498,0.265-0.987,0.346-1.472
			c0.03-0.241,0.092-0.485,0.096-0.722c0.008-0.237,0.05-0.479,0.035-0.712c-0.013-0.234-0.003-0.471-0.029-0.702l-0.096-0.692
			l-0.016-0.118L52.655,120l-0.023-0.334c-0.012-0.111,0.001-0.223-0.029-0.333c-0.055-0.221-0.059-0.446-0.144-0.666
			c-0.074-0.219-0.122-0.444-0.231-0.659c-0.096-0.217-0.18-0.438-0.312-0.648c-0.12-0.213-0.23-0.43-0.383-0.633
			c-0.146-0.206-0.272-0.419-0.443-0.616c-0.166-0.198-0.311-0.407-0.492-0.597l-0.534-0.578l0.142,0.123l-0.67-0.466l-0.721-0.426
			c-0.501-0.267-1.02-0.522-1.561-0.761l-3.411-1.439c-0.588-0.264-1.178-0.554-1.765-0.882c-0.292-0.168-0.58-0.359-0.869-0.539
			c-0.283-0.2-0.56-0.418-0.838-0.628l-0.781-0.731c-0.233-0.276-0.474-0.546-0.693-0.833c-0.196-0.304-0.401-0.605-0.582-0.917
			l-0.459-0.976l-0.041-0.085l-0.011-0.074l-0.263-1.725c0.009-0.578,0.007-1.16,0.042-1.735l0.148-0.846
			c0.057-0.28,0.089-0.568,0.169-0.839l0.265-0.805c0.095-0.265,0.165-0.543,0.284-0.795l0.36-0.754
			c0.126-0.247,0.23-0.51,0.375-0.744c0.294-0.465,0.574-0.942,0.885-1.393c0.337-0.43,0.668-0.864,1.012-1.285l1.113-1.185
			l0.025-0.027l0.039-0.032c2.263-1.888,4.555-3.728,6.77-5.619c1.126-0.932,2.198-1.908,3.274-2.882
			c1.088-0.964,2.071-2.018,3.11-3.026l1.43-1.615l0.716-0.808c0.228-0.274,0.425-0.563,0.64-0.844l1.269-1.695
			c0.402-0.595,0.756-1.252,1.136-1.876l0.561-0.947l0.07-0.119l0.035-0.059l0.018-0.03l0.009-0.015
			c-0.063,0.123-0.014,0.025-0.026,0.049l0.106-0.247l0.212-0.494c0.272-0.663,0.592-1.308,0.827-1.987l0.708-2.039l0.579-2.085
			c0.206-0.692,0.319-1.41,0.485-2.114c0.172-0.704,0.295-1.418,0.416-2.135c0.27-1.426,0.441-2.875,0.622-4.321
			c0.161-1.45,0.299-2.905,0.41-4.366l0.309-4.387c0.198-2.928,0.378-5.865,0.708-8.79c0.065-0.732,0.183-1.46,0.281-2.189
			c0.097-0.729,0.202-1.457,0.342-2.18C67.504,35.859,67.842,34.432,68.169,33z"/>
	</g>
</g>
<g>
	<path style="fill:#FDDBE3;" d="M184.771,112.594v-0.639c30.766-8.307,49.396-26.517,49.396-47.283
		c0-16.932-9.1-29.711-24.265-38.018C191.704,15.792,167.439,11,129.742,11c-14.32,0-28.498,0.565-41.11,1.488
		c-0.112,6.457-0.345,12.897-0.656,19.327c0.266,0.023,0.529,0.055,0.786,0.109c2.301,0.485,4.6,0.969,6.899,1.454
		c1.228,0.258,2.188,0.827,2.882,1.558v-0.614c6.067-0.958,16.034-1.917,33.365-1.917c38.131,0,64.129,9.904,64.129,35.143
		c0,18.546-18.676,32.749-51.065,35.574c0.073,2.781,0.108,5.566,0.108,8.363c0,1.976-0.948,3.331-2.274,4.053
		c-0.021,3.21-0.065,6.42-0.157,9.629c35.17,2.367,62.487,14.845,62.487,41.099c0,31.309-35.963,41.853-74.961,41.853
		c-3.867,0-7.507-0.028-10.922-0.089c-0.594,1.03-1.205,2.052-1.841,3.062c-2.986,6.616-8.439,12.624-14.279,18.189
		c-0.12,0.129-0.244,0.254-0.364,0.383c5.21,0.114,10.735,0.18,16.573,0.18c47.664,0,80.595-6.392,100.961-20.128
		c14.731-10.543,24.697-24.6,24.697-43.13C245,134.638,212.502,117.706,184.771,112.594z"/>
</g>
<g>
	<path style="fill:#FF3F68;" d="M5.254,15.468c15.803-2.666,34.59-4.665,55.164-4.665c37.273,0,63.813,9.663,81.406,27.988
		c17.891,18.326,28.326,44.314,28.326,80.632c0,36.65-10.137,66.639-28.924,87.296c-18.785,20.991-49.797,32.319-88.859,32.319
		c-18.488,0-33.994-0.999-47.113-2.665V15.468z M31.195,214.05c6.561,1.333,16.104,1.666,26.24,1.666
		c55.463,0,85.58-34.651,85.58-95.292c0.299-52.978-26.539-86.63-81.404-86.63c-13.418,0-23.557,1.333-30.416,2.999V214.05z"/>
</g>
</svg>
